<?xml version="1.0" encoding="UTF-8" standalone="no"?>
<!-- Created with Inkscape (http://www.inkscape.org/) -->

<svg
   xmlns:dc="http://purl.org/dc/elements/1.1/"
   xmlns:cc="http://creativecommons.org/ns#"
   xmlns:rdf="http://www.w3.org/1999/02/22-rdf-syntax-ns#"
   xmlns:svg="http://www.w3.org/2000/svg"
   xmlns="http://www.w3.org/2000/svg"
   xmlns:sodipodi="http://sodipodi.sourceforge.net/DTD/sodipodi-0.dtd"
   xmlns:inkscape="http://www.inkscape.org/namespaces/inkscape"
   version="1.1"
   id="svg3784"
   width="740"
   height="641"
   viewBox="0 0 740 641"
   sodipodi:docname="homewhite.svg"
   inkscape:version="0.92.5 (2060ec1f9f, 2020-04-08)">
  <metadata
     id="metadata3790">
    <rdf:RDF>
      <cc:Work
         rdf:about="">
        <dc:format>image/svg+xml</dc:format>
        <dc:type
           rdf:resource="http://purl.org/dc/dcmitype/StillImage" />
        <dc:title></dc:title>
      </cc:Work>
    </rdf:RDF>
  </metadata>
  <defs
     id="defs3788" />
  <sodipodi:namedview
     pagecolor="#ffffff"
     bordercolor="#666666"
     borderopacity="1"
     objecttolerance="10"
     gridtolerance="10"
     guidetolerance="10"
     inkscape:pageopacity="0"
     inkscape:pageshadow="2"
     inkscape:window-width="1920"
     inkscape:window-height="1015"
     id="namedview3786"
     showgrid="false"
     inkscape:snap-grids="false"
     inkscape:snap-to-guides="false"
     inkscape:snap-page="false"
     inkscape:zoom="1.0285189"
     inkscape:cx="197.99747"
     inkscape:cy="321.60647"
     inkscape:window-x="0"
     inkscape:window-y="0"
     inkscape:window-maximized="1"
     inkscape:current-layer="svg3784" />
  <path
     style="fill:#ffffff;stroke-width:1"
     d="m 180.41764,586.3476 c -7.69746,-0.71529 -11.23384,-2.64174 -14.22491,-7.74904 -1.53779,-2.62579 -1.87297,-6.81202 -2.63863,-32.95561 -0.48239,-16.47126 -0.89288,-61.47725 -0.9122,-100.01332 l -0.0351,-70.06557 56.63483,-51.57705 C 332.96783,220.41714 363.883,193.42622 368.81899,193.39644 c 3.61207,-0.0218 21.24825,14.19551 52.40022,42.24211 17.0904,15.38676 66.36374,60.19467 116.02143,105.50688 l 36.73063,33.5164 -0.33724,98.22644 c -0.25236,73.50227 -0.63342,99.11048 -1.51393,101.73867 -0.64717,1.93173 -2.48804,5.32253 -4.09082,7.5351 l -2.91415,4.02288 -57.11488,-0.0328 c -72.24512,-0.0414 -79.598,-0.64053 -82.8689,-6.75229 -2.05101,-3.83234 -2.87888,-21.96706 -3.54263,-77.60236 l -0.67619,-56.67766 -4.71069,-3.94401 c -2.59088,-2.1692 -6.71769,-4.54803 -9.17069,-5.28628 -6.09751,-1.83507 -45.60668,-2.80314 -63.35312,-1.55228 -15.03013,1.0594 -18.9216,2.41472 -24.67517,8.59386 l -2.57038,2.76051 -0.53866,60.76699 c -0.54736,61.74778 -0.93642,68.22473 -4.38013,72.92038 -2.82338,3.84981 -6.22931,4.93493 -18.40779,5.86459 -14.4055,1.09967 -103.3569,1.97112 -112.68826,1.104 z"
     id="path17"
     inkscape:connector-curvature="0" />
  <path
     style="fill:#ffffff;stroke-width:1"
     d="m 625.29351,365.32281 c -22.83443,-19.04428 -47.15016,-40.7518 -136.48953,-121.8491 -87.24137,-79.19286 -105.6666,-95.30212 -115.78679,-101.23295 -4.9653,-2.90986 -5.3032,-2.7944 -15.46991,5.28604 -16.22603,12.89634 -41.47444,35.2705 -122.51934,108.57183 -108.93078,98.52282 -132.63199,119.1033 -137.163564,119.1033 -1.315178,0 -4.017251,-1.51642 -6.173939,-3.46487 -6.366452,-5.7517 -23.443986,-28.86771 -28.118533,-38.06102 -3.220263,-6.3332 -2.762283,-9.62177 2.224621,-15.97415 4.952131,-6.30808 8.942379,-10.00927 122.575455,-113.69592 C 318.27904,85.469816 339.70587,66.323034 347.48321,61.825941 c 9.29858,-5.376728 22.61093,-7.03992 32.60134,-4.073085 2.69675,0.800848 7.41817,3.163012 10.49205,5.249253 8.33282,5.655489 28.60768,22.773076 51.46673,43.452141 26.08993,23.60181 47.69909,42.47907 52.42401,45.79638 4.84782,3.40361 5.45236,2.44013 5.60673,-8.93553 0.55279,-40.73698 1.62114,-80.961491 2.18258,-82.17789 1.34953,-2.923745 4.86411,-3.990228 16.51609,-5.011709 13.41299,-1.175862 49.78376,-0.428633 55.24285,1.134951 1.94744,0.55778 4.07182,1.653999 4.72086,2.436043 2.26559,2.729872 2.83518,21.931449 2.89863,97.716545 l 0.0639,76.32334 28.26673,25.74479 c 51.48244,46.88926 64.50332,59.9169 65.57029,65.60437 0.77507,4.13143 -2.09032,10.76134 -9.2126,21.3161 -9.82553,14.56084 -23.8254,29.77256 -27.40069,29.77256 -0.33999,0 -6.47312,-4.88312 -13.62917,-10.85139 z"
     id="path15"
     inkscape:connector-curvature="0" />
  <path
     style="fill:#ffffff;stroke-width:1"
     d=""
     id="path19"
     inkscape:connector-curvature="0" />
</svg>
